# xmcd
#
# Track frame offsets: 
#        150
#        23285
#        53525
#        75078
#        105917
#        120854
#        147012
#        175438
#        203528
#        229474
#        262462
#
# Disc length: 3854 seconds
#
# Revision: 0
# Processed by: cddbd v1.5.2PL0 Copyright (c) Steve Scherf et al.
# Submitted via: ExactAudioCopy v1.0b3
#
DISCID=7c0f0c0b
DTITLE=Aaron Kamm and The One Drops - Grow
DYEAR=2010
DGENRE=Blues/Reggae
TTITLE0=Just To Give
TTITLE1=B Shuffle
TTITLE2=Who Are They Foolin
TTITLE3=Blue World
TTITLE4=Feel Alright
TTITLE5=Morning Sun
TTITLE6=Southtown
TTITLE7=Right Now
TTITLE8=Carry Me
TTITLE9=Save Yourself
TTITLE10=Lil' Ruby
EXTD=
EXTT0=
EXTT1=
EXTT2=
EXTT3=
EXTT4=
EXTT5=
EXTT6=
EXTT7=
EXTT8=
EXTT9=
EXTT10=
PLAYORDER=
